<svg width="390.727490234375px" height="107.635009765625px" xmlns="http://www.w3.org/2000/svg" viewBox="54.636254882812494 21.1824951171875 390.727490234375 107.635009765625" ><defs><filter id="editing-hover" x="-100%" y="-100%" width="300%" height="300%"><feFlood flood-color="#052b4a" result="flood"></feFlood><feComposite operator="in" in2="SourceAlpha" in="flood" result="shadow"></feComposite><feOffset dx="-4" dy="-4" in="SourceGraphic" result="offset-1"></feOffset><feOffset dx="4" dy="4" in="shadow" result="offset-2"></feOffset><feMerge><feMergeNode in="offset-2"></feMergeNode><feMergeNode in="offset-1"></feMergeNode></feMerge></filter></defs><g filter="url(#editing-hover)"><g transform="translate(113.8099901676178, 95.89500045776367)"><path d="M20.61-41.34L20.61-41.34Q27.07-41.34 31.81-38.27L31.81-38.27L30.78-33.60L30.21-33.47L30.21-33.47Q25.92-37.06 20.35-37.06L20.35-37.06L20.35-37.06Q14.27-37.06 11.01-32.86L11.01-32.86L11.01-32.86Q7.74-28.67 7.74-20.61L7.74-20.61L7.74-20.61Q7.74-12.48 11.01-8.19L11.01-8.19L11.01-8.19Q14.27-3.90 20.22-3.90L20.22-3.90L20.22-3.90Q23.04-3.90 25.82-4.93L25.82-4.93L25.82-4.93Q28.61-5.95 30.91-7.81L30.91-7.81L31.55-7.49L31.10-2.62L31.10-2.62Q25.54 0.45 19.78 0.45L19.78 0.45L19.78 0.45Q11.52 0.45 6.98-4.90L6.98-4.90L6.98-4.90Q2.43-10.24 2.43-20.16L2.43-20.16L2.43-20.16Q2.43-30.34 7.17-35.84L7.17-35.84L7.17-35.84Q11.90-41.34 20.61-41.34L20.61-41.34ZM51.52-32.26L51.52-32.26Q58.50-32.26 62.24-28.16L62.24-28.16L62.24-28.16Q65.98-24.06 65.98-16.58L65.98-16.58L65.98-16.58Q65.98-8.45 61.98-4L61.98-4L61.98-4Q57.98 0.45 50.56 0.45L50.56 0.45L50.56 0.45Q43.65 0.45 39.87-3.74L39.87-3.74L39.87-3.74Q36.10-7.94 36.10-15.68L36.10-15.68L36.10-15.68Q36.10-23.62 40.13-27.94L40.13-27.94L40.13-27.94Q44.16-32.26 51.52-32.26L51.52-32.26ZM51.07-28.22L51.07-28.22Q46.02-28.22 43.55-25.34L43.55-25.34L43.55-25.34Q41.09-22.46 41.09-16.26L41.09-16.26L41.09-16.26Q41.09-9.60 43.52-6.59L43.52-6.59L43.52-6.59Q45.95-3.58 50.94-3.58L50.94-3.58L50.94-3.58Q56.06-3.58 58.56-6.53L58.56-6.53L58.56-6.53Q61.06-9.47 61.06-15.74L61.06-15.74L61.06-15.74Q61.06-22.21 58.59-25.22L58.59-25.22L58.59-25.22Q56.13-28.22 51.07-28.22L51.07-28.22ZM101.25-32L101.06-9.54L101.12 0L96 0L79.23-24.32L78.91-24.32L78.85-10.62L78.98 0L74.62 0L74.82-9.41L74.69-31.87L79.74-31.87L96.51-7.55L96.96-7.55L96.83-31.68L101.25-32ZM122.18-32.19L122.18-32.19Q126.08-32.19 129.98-30.66L129.98-30.66L129.15-25.92L128.38-25.73L128.38-25.73Q126.59-27.14 124.99-27.81L124.99-27.81L124.99-27.81Q123.39-28.48 121.66-28.48L121.66-28.48L121.66-28.48Q118.91-28.48 117.31-27.04L117.31-27.04L117.31-27.04Q115.71-25.60 115.71-23.74L115.71-23.74L115.71-23.74Q115.71-21.89 117.28-20.74L117.28-20.74L117.28-20.74Q118.85-19.58 122.11-18.18L122.11-18.18L122.11-18.18Q124.99-16.90 126.69-15.87L126.69-15.87L126.69-15.87Q128.38-14.85 129.63-13.15L129.63-13.15L129.63-13.15Q130.88-11.46 130.88-9.02L130.88-9.02L130.88-9.02Q130.88-6.53 129.54-4.38L129.54-4.38L129.54-4.38Q128.19-2.24 125.60-0.93L125.60-0.93L125.60-0.93Q123.01 0.38 119.42 0.38L119.42 0.38L119.42 0.38Q117.18 0.38 114.72-0.16L114.72-0.16L114.72-0.16Q112.26-0.70 110.14-1.79L110.14-1.79L110.72-6.85L111.36-7.10L111.36-7.10Q113.15-5.31 115.55-4.32L115.55-4.32L115.55-4.32Q117.95-3.33 120.00-3.33L120.00-3.33L120.00-3.33Q122.69-3.33 124.42-4.77L124.42-4.77L124.42-4.77Q126.14-6.21 126.14-8.26L126.14-8.26L126.14-8.26Q126.14-10.18 124.58-11.33L124.58-11.33L124.58-11.33Q123.01-12.48 119.68-14.02L119.68-14.02L119.68-14.02Q116.93-15.23 115.17-16.26L115.17-16.26L115.17-16.26Q113.41-17.28 112.19-18.98L112.19-18.98L112.19-18.98Q110.98-20.67 110.98-23.10L110.98-23.10L110.98-23.10Q110.98-25.66 112.35-27.71L112.35-27.71L112.35-27.71Q113.73-29.76 116.26-30.98L116.26-30.98L116.26-30.98Q118.78-32.19 122.18-32.19L122.18-32.19ZM164.67-31.87L164.48-15.68L164.48-11.07L164.48-11.07Q164.54-5.63 161.18-2.62L161.18-2.62L161.18-2.62Q157.82 0.38 151.55 0.38L151.55 0.38L151.55 0.38Q145.34 0.38 142.08-2.59L142.08-2.59L142.08-2.59Q138.82-5.57 138.94-11.07L138.94-11.07L139.01-15.94L138.94-31.87L143.74-31.87L143.49-11.84L143.49-11.84Q143.42-7.81 145.50-5.76L145.50-5.76L145.50-5.76Q147.58-3.71 151.74-3.71L151.74-3.71L151.74-3.71Q155.84-3.71 157.95-5.76L157.95-5.76L157.95-5.76Q160.06-7.81 160-11.84L160-11.84L159.81-31.87L164.67-31.87ZM205.76-31.87L209.02 0L204.74 0L204.03-9.73L202.30-24.45L201.92-24.45L192.77-3.58L188.99-3.58L180.35-24.45L179.97-24.45L178.30-10.11L177.41 0L173.31 0L176.83-31.87L182.40-31.87L184-27.07L190.98-9.92L191.36-9.92L198.66-27.33L200.32-31.87L205.76-31.87ZM229.76-3.84L238.27-4.10L238.66-3.71L238.21 0L218.82 0L219.01-9.60L218.82-31.87L238.34-31.87L238.66-31.49L238.27-27.78L230.21-28.03L223.55-27.97L223.49-18.30L229.82-18.24L235.39-18.43L235.71-17.98L235.33-14.21L229.44-14.40L223.49-14.34L223.42-9.98L223.49-3.90L229.76-3.84ZM261.31-12.86L261.31-12.86Q265.22-6.91 269.95-1.15L269.95-1.15L269.89-0.51L269.89-0.51Q267.20 0.32 265.47 0.45L265.47 0.45L264.64-0.06L264.64-0.06Q259.78-7.42 257.28-11.65L257.28-11.65L251.26-11.58L251.26-9.98L251.39 0L246.66 0L246.85-9.60L246.66-31.87L257.54-31.94L257.54-31.94Q262.59-31.94 265.31-29.57L265.31-29.57L265.31-29.57Q268.03-27.20 268.03-22.72L268.03-22.72L268.03-22.72Q268.03-19.46 266.27-16.90L266.27-16.90L266.27-16.90Q264.51-14.34 261.31-12.86L261.31-12.86ZM251.39-28.03L251.33-15.55L257.34-15.36L257.34-15.36Q263.04-16.96 263.04-22.34L263.04-22.34L263.04-22.34Q263.04-25.15 261.38-26.56L261.38-26.56L261.38-26.56Q259.71-27.97 256.32-28.10L256.32-28.10L251.39-28.03Z" fill="#ffd5af" data-darkreader-inline-fill="" style="--darkreader-inline-fill:#592a00;"></path></g></g><style>text {
  font-size: 64px;
  font-family: Arial Black;
  dominant-baseline: central;
  text-anchor: middle;
}</style><style class="darkreader darkreader--sync" media="screen"></style></svg>