<svg width="150" height="36" viewBox="0 0 242 36" fill="none" xmlns="http://www.w3.org/2000/svg">
<g filter="url(#filter0_b_1_74)">
<path d="M16.864 6.296C14.08 6.296 11.952 7.336 10.48 9.416C9.008 11.496 8.272 14.344 8.272 17.96C8.272 21.608 8.944 24.44 10.288 26.456C11.664 28.44 13.856 29.432 16.864 29.432C18.272 29.432 19.664 29.272 21.04 28.952C22.448 28.632 23.968 28.184 25.6 27.608V33.704C24.096 34.312 22.608 34.76 21.136 35.048C19.664 35.336 18.016 35.48 16.192 35.48C12.672 35.48 9.76 34.76 7.456 33.32C5.184 31.848 3.504 29.8 2.416 27.176C1.328 24.52 0.784 21.432 0.784 17.912C0.784 14.456 1.408 11.4 2.656 8.744C3.904 6.088 5.712 4.008 8.08 2.504C10.48 0.999998 13.408 0.247998 16.864 0.247998C18.56 0.247998 20.256 0.471998 21.952 0.919998C23.68 1.336 25.328 1.912 26.896 2.648L24.544 8.552C23.264 7.944 21.968 7.416 20.656 6.968C19.376 6.52 18.112 6.296 16.864 6.296ZM111.86 27.224C111.86 29.88 110.916 31.928 109.028 33.368C107.172 34.776 104.388 35.48 100.676 35.48C98.8521 35.48 97.2841 35.352 95.9721 35.096C94.6601 34.872 93.3481 34.488 92.0361 33.944V28.04C93.4441 28.68 94.9641 29.208 96.5961 29.624C98.2281 30.04 99.6681 30.248 100.916 30.248C102.324 30.248 103.316 30.04 103.892 29.624C104.5 29.208 104.804 28.664 104.804 27.992C104.804 27.544 104.676 27.144 104.42 26.792C104.196 26.44 103.684 26.04 102.884 25.592C102.084 25.144 100.836 24.568 99.1401 23.864C97.5081 23.16 96.1641 22.472 95.1081 21.8C94.0521 21.096 93.2681 20.264 92.7561 19.304C92.2441 18.312 91.9881 17.08 91.9881 15.608C91.9881 13.176 92.9321 11.352 94.8201 10.136C96.7081 8.92 99.2201 8.312 102.356 8.312C103.988 8.312 105.54 8.472 107.012 8.792C108.484 9.112 110.004 9.64 111.572 10.376L109.412 15.512C108.132 14.968 106.916 14.52 105.764 14.168C104.612 13.784 103.444 13.592 102.26 13.592C100.148 13.592 99.0921 14.168 99.0921 15.32C99.0921 15.736 99.2201 16.12 99.4761 16.472C99.7641 16.792 100.292 17.144 101.06 17.528C101.86 17.912 103.028 18.424 104.564 19.064C106.068 19.672 107.364 20.312 108.452 20.984C109.54 21.624 110.372 22.44 110.948 23.432C111.556 24.392 111.86 25.656 111.86 27.224ZM141.48 8.792V35H136.008L135.048 31.64H134.664C133.832 32.984 132.68 33.96 131.208 34.568C129.768 35.176 128.232 35.48 126.6 35.48C123.784 35.48 121.528 34.728 119.832 33.224C118.136 31.688 117.288 29.24 117.288 25.88V8.792H124.44V24.104C124.44 25.96 124.776 27.368 125.448 28.328C126.12 29.288 127.192 29.768 128.664 29.768C130.84 29.768 132.328 29.032 133.128 27.56C133.928 26.056 134.328 23.912 134.328 21.128V8.792H141.48ZM179.746 8.312C182.722 8.312 184.962 9.08 186.466 10.616C188.002 12.12 188.77 14.552 188.77 17.912V35H181.618V19.688C181.618 15.912 180.306 14.024 177.682 14.024C175.794 14.024 174.45 14.696 173.65 16.04C172.85 17.384 172.45 19.32 172.45 21.848V35H165.298V19.688C165.298 15.912 163.986 14.024 161.362 14.024C159.378 14.024 158.002 14.776 157.234 16.28C156.498 17.752 156.13 19.88 156.13 22.664V35H148.978V8.792H154.45L155.41 12.152H155.794C156.594 10.808 157.682 9.832 159.058 9.224C160.466 8.616 161.922 8.312 163.426 8.312C165.346 8.312 166.978 8.632 168.322 9.272C169.666 9.88 170.69 10.84 171.394 12.152H172.018C172.818 10.808 173.922 9.832 175.33 9.224C176.77 8.616 178.242 8.312 179.746 8.312ZM206.935 8.312C210.551 8.312 213.415 9.352 215.527 11.432C217.639 13.48 218.695 16.408 218.695 20.216V23.672H201.799C201.863 25.688 202.455 27.272 203.575 28.424C204.727 29.576 206.311 30.152 208.327 30.152C210.023 30.152 211.559 29.992 212.935 29.672C214.311 29.32 215.735 28.792 217.207 28.088V33.608C215.927 34.248 214.567 34.712 213.127 35C211.719 35.32 210.007 35.48 207.991 35.48C205.367 35.48 203.047 35 201.031 34.04C199.015 33.048 197.431 31.56 196.279 29.576C195.127 27.592 194.551 25.096 194.551 22.088C194.551 19.016 195.063 16.472 196.087 14.456C197.143 12.408 198.599 10.872 200.455 9.848C202.311 8.824 204.471 8.312 206.935 8.312ZM206.983 13.4C205.607 13.4 204.455 13.848 203.527 14.744C202.631 15.64 202.103 17.032 201.943 18.92H211.975C211.943 17.32 211.527 16.008 210.727 14.984C209.927 13.928 208.679 13.4 206.983 13.4ZM239.134 8.312C239.486 8.312 239.902 8.328 240.382 8.36C240.862 8.392 241.246 8.44 241.534 8.504L241.006 15.224C240.782 15.16 240.446 15.112 239.998 15.08C239.582 15.016 239.214 14.984 238.894 14.984C237.678 14.984 236.51 15.208 235.39 15.656C234.27 16.072 233.358 16.76 232.654 17.72C231.982 18.68 231.646 19.992 231.646 21.656V35H224.494V8.792H229.918L230.974 13.208H231.31C232.078 11.864 233.134 10.712 234.478 9.752C235.822 8.792 237.374 8.312 239.134 8.312Z" fill="white"/>
<path d="M56.1145 21.848C56.1145 26.2 54.9625 29.56 52.6585 31.928C50.3865 34.296 47.2825 35.48 43.3465 35.48C40.9145 35.48 38.7385 34.952 36.8185 33.896C34.9305 32.84 33.4425 31.304 32.3545 29.288C31.2665 27.24 30.7225 24.76 30.7225 21.848C30.7225 17.496 31.8585 14.152 34.1305 11.816C36.4025 9.48 39.5225 8.312 43.4905 8.312C45.9545 8.312 48.1305 8.84 50.0185 9.896C51.9065 10.952 53.3945 12.488 54.4825 14.504C55.5705 16.488 56.1145 18.936 56.1145 21.848ZM38.0185 21.848C38.0185 24.44 38.4345 26.408 39.2665 27.752C40.1305 29.064 41.5225 29.72 43.4425 29.72C45.3305 29.72 46.6905 29.064 47.5225 27.752C48.3865 26.408 48.8185 24.44 48.8185 21.848C48.8185 19.256 48.3865 17.32 47.5225 16.04C46.6905 14.728 45.3145 14.072 43.3945 14.072C41.5065 14.072 40.1305 14.728 39.2665 16.04C38.4345 17.32 38.0185 19.256 38.0185 21.848ZM76.9053 8.312C79.7213 8.312 81.9773 9.08 83.6733 10.616C85.3693 12.12 86.2173 14.552 86.2173 17.912V35H79.0653V19.688C79.0653 17.8 78.7293 16.392 78.0573 15.464C77.3853 14.504 76.3133 14.024 74.8413 14.024C72.6653 14.024 71.1773 14.776 70.3773 16.28C69.5773 17.752 69.1773 19.88 69.1773 22.664V35H62.0253V8.792H67.4973L68.4573 12.152H68.8413C69.6733 10.808 70.8093 9.832 72.2493 9.224C73.7213 8.616 75.2733 8.312 76.9053 8.312Z" fill="#CD388C"/>
</g>
<defs>
<filter id="filter0_b_1_74" x="-3.216" y="-3.75201" width="248.75" height="43.232" filterUnits="userSpaceOnUse" color-interpolation-filters="sRGB">
<feFlood flood-opacity="0" result="BackgroundImageFix"/>
<feGaussianBlur in="BackgroundImage" stdDeviation="2"/>
<feComposite in2="SourceAlpha" operator="in" result="effect1_backgroundBlur_1_74"/>
<feBlend mode="normal" in="SourceGraphic" in2="effect1_backgroundBlur_1_74" result="shape"/>
</filter>
</defs>
</svg>
