<svg xmlns="http://www.w3.org/2000/svg" version="1.1" xmlns:xlink="http://www.w3.org/1999/xlink" xmlns:svgjs="http://svgjs.com/svgjs" width="2000" height="3000" preserveAspectRatio="none" viewBox="0 0 2000 3000"><g mask="url(&quot;#SvgjsMask1124&quot;)" fill="none"><rect width="2000" height="3000" x="0" y="0" fill="url(#SvgjsRadialGradient1125)"></rect><path d="M62 3000L3062 0L3225.5 0L225.5 3000z" fill="url(#SvgjsLinearGradient1126)"></path><path d="M661 3000L3661 0L4498 0L1498 3000z" fill="url(#SvgjsLinearGradient1126)"></path><path d="M1989 3000L-1011 0L-1809 0L1191 3000z" fill="url(#SvgjsLinearGradient1127)"></path><path d="M1318 3000L-1682 0L-2165 0L835 3000z" fill="url(#SvgjsLinearGradient1127)"></path><path d="M759.6784256126239 3000L2000 1759.6784256126239L2000 3000z" fill="url(#SvgjsLinearGradient1126)"></path><path d="M0 3000L1240.3215743873761 3000L 0 1759.6784256126239z" fill="url(#SvgjsLinearGradient1127)"></path></g><defs><mask id="SvgjsMask1124"><rect width="2000" height="3000" fill="#ffffff"></rect></mask><radialGradient cx="100%" cy="100%" r="3605.55" gradientUnits="userSpaceOnUse" id="SvgjsRadialGradient1125"><stop stop-color="rgba(0, 0, 0, 1)" offset="0.15"></stop><stop stop-color="rgba(0, 0, 0, 1)" offset="0.38"></stop><stop stop-color="rgba(0, 0, 0, 1)" offset="0.58"></stop><stop stop-color="rgba(0, 0, 0, 1)" offset="1"></stop><stop stop-color="rgba(255, 0, 153, 0.7607843137254902)" offset="1"></stop></radialGradient><linearGradient x1="0%" y1="100%" x2="100%" y2="0%" id="SvgjsLinearGradient1126"><stop stop-color="rgba(255, 0, 170, 1)" offset="0"></stop><stop stop-opacity="0" stop-color="rgba(255, 0, 170, 1)" offset="0.66"></stop></linearGradient><linearGradient x1="100%" y1="100%" x2="0%" y2="0%" id="SvgjsLinearGradient1127"><stop stop-color="rgba(255, 0, 170, 1)" offset="0"></stop><stop stop-opacity="0" stop-color="rgba(255, 0, 170, 1)" offset="0.66"></stop></linearGradient></defs></svg>