<svg xmlns="http://www.w3.org/2000/svg" version="1.1" xmlns:xlink="http://www.w3.org/1999/xlink" xmlns:svgjs="http://svgjs.com/svgjs" width="2000" height="1000" preserveAspectRatio="none" viewBox="0 0 2000 1000"><g mask="url(&quot;#SvgjsMask2688&quot;)" fill="none"><rect width="2000" height="1000" x="0" y="0" fill="url(#SvgjsLinearGradient2689)"></rect><path d="M20 1000L1020 0L1863 0L863 1000z" fill="url(#SvgjsLinearGradient2690)"></path><path d="M705 1000L1705 0L2498.5 0L1498.5 1000z" fill="url(#SvgjsLinearGradient2690)"></path><path d="M1974 1000L974 0L47 0L1047 1000z" fill="url(#SvgjsLinearGradient2691)"></path><path d="M1290 1000L290 0L-373 0L627 1000z" fill="url(#SvgjsLinearGradient2691)"></path><path d="M1245.3073105496935 1000L2000 245.3073105496935L2000 1000z" fill="url(#SvgjsLinearGradient2690)"></path><path d="M0 1000L754.6926894503065 1000L 0 245.3073105496935z" fill="url(#SvgjsLinearGradient2691)"></path></g><defs><mask id="SvgjsMask2688"><rect width="2000" height="1000" fill="#ffffff"></rect></mask><linearGradient x1="50%" y1="100%" x2="50%" y2="0%" gradientUnits="userSpaceOnUse" id="SvgjsLinearGradient2689"><stop stop-color="rgba(15, 0, 12, 1)" offset="0"></stop><stop stop-color="rgba(0, 0, 0, 1)" offset="0.18"></stop><stop stop-color="rgba(36, 0, 27, 0.98)" offset="0.49"></stop><stop stop-color="rgba(0, 0, 0, 1)" offset="0.71"></stop><stop stop-color="rgba(0, 0, 0, 1)" offset="1"></stop><stop stop-color="rgba(255, 0, 153, 0.7607843137254902)" offset="1"></stop></linearGradient><linearGradient x1="0%" y1="100%" x2="100%" y2="0%" id="SvgjsLinearGradient2690"><stop stop-color="rgba(132, 6, 80, 1)" offset="0"></stop><stop stop-opacity="0" stop-color="rgba(132, 6, 80, 1)" offset="0.66"></stop></linearGradient><linearGradient x1="100%" y1="100%" x2="0%" y2="0%" id="SvgjsLinearGradient2691"><stop stop-color="rgba(132, 6, 80, 1)" offset="0"></stop><stop stop-opacity="0" stop-color="rgba(132, 6, 80, 1)" offset="0.66"></stop></linearGradient></defs></svg>