<svg xmlns="http://www.w3.org/2000/svg" version="1.1" xmlns:xlink="http://www.w3.org/1999/xlink" xmlns:svgjs="http://svgjs.com/svgjs" width="2000" height="1000" preserveAspectRatio="none" viewBox="0 0 2000 1000"><g mask="url(&quot;#SvgjsMask3240&quot;)" fill="none"><rect width="2000" height="1000" x="0" y="0" fill="url(#SvgjsRadialGradient3241)"></rect><path d="M110 1000L1110 0L1218 0L218 1000z" fill="url(#SvgjsLinearGradient3242)"></path><path d="M683 1000L1683 0L1902 0L902 1000z" fill="url(#SvgjsLinearGradient3242)"></path><path d="M1958 1000L958 0L649 0L1649 1000z" fill="url(#SvgjsLinearGradient3243)"></path><path d="M1310 1000L310 0L-264.5 0L735.5 1000z" fill="url(#SvgjsLinearGradient3243)"></path><path d="M1199.8332047540098 1000L2000 199.83320475400967L2000 1000z" fill="url(#SvgjsLinearGradient3242)"></path><path d="M0 1000L800.1667952459903 1000L 0 199.83320475400967z" fill="url(#SvgjsLinearGradient3243)"></path></g><defs><mask id="SvgjsMask3240"><rect width="2000" height="1000" fill="#ffffff"></rect></mask><radialGradient cx="100%" cy="100%" r="2236.07" gradientUnits="userSpaceOnUse" id="SvgjsRadialGradient3241"><stop stop-color="rgba(0, 0, 0, 1)" offset="0.15"></stop><stop stop-color="rgba(0, 0, 0, 1)" offset="0.38"></stop><stop stop-color="rgba(0, 0, 0, 1)" offset="0.58"></stop><stop stop-color="rgba(0, 0, 0, 1)" offset="1"></stop><stop stop-color="rgba(255, 0, 153, 0.7607843137254902)" offset="1"></stop></radialGradient><linearGradient x1="0%" y1="100%" x2="100%" y2="0%" id="SvgjsLinearGradient3242"><stop stop-color="rgba(255, 0, 158, 1)" offset="0"></stop><stop stop-opacity="0" stop-color="rgba(255, 0, 158, 1)" offset="0.66"></stop></linearGradient><linearGradient x1="100%" y1="100%" x2="0%" y2="0%" id="SvgjsLinearGradient3243"><stop stop-color="rgba(255, 0, 158, 1)" offset="0"></stop><stop stop-opacity="0" stop-color="rgba(255, 0, 158, 1)" offset="0.66"></stop></linearGradient></defs></svg>