<svg xmlns="http://www.w3.org/2000/svg" version="1.1" xmlns:xlink="http://www.w3.org/1999/xlink" xmlns:svgjs="http://svgjs.com/svgjs" width="2000" height="3000" preserveAspectRatio="none" viewBox="0 0 2000 3000"><g mask="url(&quot;#SvgjsMask1186&quot;)" fill="none"><rect width="2000" height="3000" x="0" y="0" fill="url(#SvgjsLinearGradient1187)"></rect><path d="M2000 0L1930.44 0L2000 750.77z" fill="rgba(255, 255, 255, .1)"></path><path d="M1930.44 0L2000 750.77L2000 1409.3400000000001L906.46 0z" fill="rgba(255, 255, 255, .075)"></path><path d="M906.46 0L2000 1409.3400000000001L2000 1913.7900000000002L865.9000000000001 0z" fill="rgba(255, 255, 255, .05)"></path><path d="M865.9000000000001 0L2000 1913.7900000000002L2000 2351.07L648.6500000000001 0z" fill="rgba(255, 255, 255, .025)"></path><path d="M0 3000L842.53 3000L0 1578.47z" fill="rgba(0, 0, 0, .1)"></path><path d="M0 1578.47L842.53 3000L848.85 3000L0 718.86z" fill="rgba(0, 0, 0, .075)"></path><path d="M0 718.8600000000001L848.85 3000L1526.83 3000L0 524.6900000000002z" fill="rgba(0, 0, 0, .05)"></path><path d="M0 524.69L1526.83 3000L1541.6399999999999 3000L0 368.30000000000007z" fill="rgba(0, 0, 0, .025)"></path></g><defs><mask id="SvgjsMask1186"><rect width="2000" height="3000" fill="#ffffff"></rect></mask><linearGradient x1="-12.5%" y1="8.33%" x2="112.5%" y2="91.67%" gradientUnits="userSpaceOnUse" id="SvgjsLinearGradient1187"><stop stop-color="rgba(0, 0, 0, 1)" offset="0"></stop><stop stop-color="rgba(16, 0, 18, 1)" offset="0.21"></stop><stop stop-color="rgba(104, 0, 114, 1)" offset="0.34"></stop><stop stop-color="rgba(0, 0, 0, 1)" offset="0.66"></stop><stop stop-color="rgba(207, 5, 204, 1)" offset="1"></stop></linearGradient></defs></svg>