<svg width="483" height="71" viewBox="0 0 483 71" fill="none" xmlns="http://www.w3.org/2000/svg">
<g filter="url(#filter0_b_1_74)">
<path d="M32.728 12.592C27.16 12.592 22.904 14.672 19.96 18.832C17.016 22.992 15.544 28.688 15.544 35.92C15.544 43.216 16.888 48.88 19.576 52.912C22.328 56.88 26.712 58.864 32.728 58.864C35.544 58.864 38.328 58.544 41.08 57.904C43.896 57.264 46.936 56.368 50.2 55.216V67.408C47.192 68.624 44.216 69.52 41.272 70.096C38.328 70.672 35.032 70.96 31.384 70.96C24.344 70.96 18.52 69.52 13.912 66.64C9.368 63.696 6.008 59.6 3.832 54.352C1.656 49.04 0.568 42.864 0.568 35.824C0.568 28.912 1.816 22.8 4.312 17.488C6.808 12.176 10.424 8.016 15.16 5.008C19.96 2 25.816 0.495996 32.728 0.495996C36.12 0.495996 39.512 0.943996 42.904 1.84C46.36 2.672 49.656 3.824 52.792 5.296L48.088 17.104C45.528 15.888 42.936 14.832 40.312 13.936C37.752 13.04 35.224 12.592 32.728 12.592ZM222.72 54.448C222.72 59.76 220.832 63.856 217.056 66.736C213.344 69.552 207.776 70.96 200.352 70.96C196.704 70.96 193.568 70.704 190.944 70.192C188.32 69.744 185.696 68.976 183.072 67.888V56.08C185.888 57.36 188.928 58.416 192.192 59.248C195.456 60.08 198.336 60.496 200.832 60.496C203.648 60.496 205.632 60.08 206.784 59.248C208 58.416 208.608 57.328 208.608 55.984C208.608 55.088 208.352 54.288 207.84 53.584C207.392 52.88 206.368 52.08 204.768 51.184C203.168 50.288 200.672 49.136 197.28 47.728C194.016 46.32 191.328 44.944 189.216 43.6C187.104 42.192 185.536 40.528 184.512 38.608C183.488 36.624 182.976 34.16 182.976 31.216C182.976 26.352 184.864 22.704 188.64 20.272C192.416 17.84 197.44 16.624 203.712 16.624C206.976 16.624 210.08 16.944 213.024 17.584C215.968 18.224 219.008 19.28 222.144 20.752L217.824 31.024C215.264 29.936 212.832 29.04 210.528 28.336C208.224 27.568 205.888 27.184 203.52 27.184C199.296 27.184 197.184 28.336 197.184 30.64C197.184 31.472 197.44 32.24 197.952 32.944C198.528 33.584 199.584 34.288 201.12 35.056C202.72 35.824 205.056 36.848 208.128 38.128C211.136 39.344 213.728 40.624 215.904 41.968C218.08 43.248 219.744 44.88 220.896 46.864C222.112 48.784 222.72 51.312 222.72 54.448ZM281.959 17.584V70H271.015L269.095 63.28H268.327C266.663 65.968 264.359 67.92 261.415 69.136C258.535 70.352 255.463 70.96 252.199 70.96C246.567 70.96 242.055 69.456 238.663 66.448C235.271 63.376 233.575 58.48 233.575 51.76V17.584H247.879V48.208C247.879 51.92 248.551 54.736 249.895 56.656C251.239 58.576 253.383 59.536 256.327 59.536C260.679 59.536 263.655 58.064 265.255 55.12C266.855 52.112 267.655 47.824 267.655 42.256V17.584H281.959ZM358.493 16.624C364.445 16.624 368.925 18.16 371.933 21.232C375.005 24.24 376.541 29.104 376.541 35.824V70H362.237V39.376C362.237 31.824 359.613 28.048 354.365 28.048C350.589 28.048 347.901 29.392 346.301 32.08C344.701 34.768 343.901 38.64 343.901 43.696V70H329.597V39.376C329.597 31.824 326.973 28.048 321.725 28.048C317.757 28.048 315.005 29.552 313.469 32.56C311.997 35.504 311.261 39.76 311.261 45.328V70H296.957V17.584H307.901L309.821 24.304H310.589C312.189 21.616 314.365 19.664 317.117 18.448C319.933 17.232 322.845 16.624 325.853 16.624C329.693 16.624 332.957 17.264 335.645 18.544C338.333 19.76 340.381 21.68 341.789 24.304H343.037C344.637 21.616 346.845 19.664 349.661 18.448C352.541 17.232 355.485 16.624 358.493 16.624ZM412.869 16.624C420.101 16.624 425.829 18.704 430.053 22.864C434.277 26.96 436.389 32.816 436.389 40.432V47.344H402.597C402.725 51.376 403.909 54.544 406.149 56.848C408.453 59.152 411.621 60.304 415.653 60.304C419.045 60.304 422.117 59.984 424.869 59.344C427.621 58.64 430.469 57.584 433.413 56.176V67.216C430.853 68.496 428.133 69.424 425.253 70C422.437 70.64 419.013 70.96 414.981 70.96C409.733 70.96 405.093 70 401.061 68.08C397.029 66.096 393.861 63.12 391.557 59.152C389.253 55.184 388.101 50.192 388.101 44.176C388.101 38.032 389.125 32.944 391.173 28.912C393.285 24.816 396.197 21.744 399.909 19.696C403.621 17.648 407.941 16.624 412.869 16.624ZM412.965 26.8C410.213 26.8 407.909 27.696 406.053 29.488C404.261 31.28 403.205 34.064 402.885 37.84H422.949C422.885 34.64 422.053 32.016 420.453 29.968C418.853 27.856 416.357 26.8 412.965 26.8ZM477.268 16.624C477.972 16.624 478.804 16.656 479.764 16.72C480.724 16.784 481.492 16.88 482.068 17.008L481.012 30.448C480.564 30.32 479.892 30.224 478.996 30.16C478.164 30.032 477.428 29.968 476.788 29.968C474.356 29.968 472.02 30.416 469.78 31.312C467.54 32.144 465.716 33.52 464.308 35.44C462.964 37.36 462.292 39.984 462.292 43.312V70H447.988V17.584H458.836L460.948 26.416H461.62C463.156 23.728 465.268 21.424 467.956 19.504C470.644 17.584 473.748 16.624 477.268 16.624Z" fill="white"/>
<path d="M111.229 43.696C111.229 52.4 108.925 59.12 104.317 63.856C99.773 68.592 93.565 70.96 85.693 70.96C80.829 70.96 76.477 69.904 72.637 67.792C68.861 65.68 65.885 62.608 63.709 58.576C61.533 54.48 60.445 49.52 60.445 43.696C60.445 34.992 62.717 28.304 67.261 23.632C71.805 18.96 78.045 16.624 85.981 16.624C90.909 16.624 95.261 17.68 99.037 19.792C102.813 21.904 105.789 24.976 107.965 29.008C110.141 32.976 111.229 37.872 111.229 43.696ZM75.037 43.696C75.037 48.88 75.869 52.816 77.533 55.504C79.261 58.128 82.045 59.44 85.885 59.44C89.661 59.44 92.381 58.128 94.045 55.504C95.773 52.816 96.637 48.88 96.637 43.696C96.637 38.512 95.773 34.64 94.045 32.08C92.381 29.456 89.629 28.144 85.789 28.144C82.013 28.144 79.261 29.456 77.533 32.08C75.869 34.64 75.037 38.512 75.037 43.696ZM152.811 16.624C158.443 16.624 162.955 18.16 166.347 21.232C169.739 24.24 171.435 29.104 171.435 35.824V70H157.131V39.376C157.131 35.6 156.459 32.784 155.115 30.928C153.771 29.008 151.627 28.048 148.683 28.048C144.331 28.048 141.355 29.552 139.755 32.56C138.155 35.504 137.355 39.76 137.355 45.328V70H123.051V17.584H133.995L135.915 24.304H136.683C138.347 21.616 140.619 19.664 143.499 18.448C146.443 17.232 149.547 16.624 152.811 16.624Z" fill="#CD388C"/>
</g>
<defs>
<filter id="filter0_b_1_74" x="-3.43201" y="-3.504" width="489.5" height="78.464" filterUnits="userSpaceOnUse" color-interpolation-filters="sRGB">
<feFlood flood-opacity="0" result="BackgroundImageFix"/>
<feGaussianBlur in="BackgroundImage" stdDeviation="2"/>
<feComposite in2="SourceAlpha" operator="in" result="effect1_backgroundBlur_1_74"/>
<feBlend mode="normal" in="SourceGraphic" in2="effect1_backgroundBlur_1_74" result="shape"/>
</filter>
</defs>
</svg>
